<?xml version="1.0" standalone="no"?>
<!DOCTYPE svg PUBLIC "-//W3C//DTD SVG 20010904//EN"
 "http://www.w3.org/TR/2001/REC-SVG-20010904/DTD/svg10.dtd">
<svg version="1.0" xmlns="http://www.w3.org/2000/svg"
 width="840.000000pt" height="840.000000pt" viewBox="0 0 840.000000 840.000000"
 preserveAspectRatio="xMidYMid meet">

<g transform="translate(0.000000,840.000000) scale(0.100000,-0.100000)"
fill="#ffffff" stroke="none">
<path d="M2805 7936 c-154 -29 -274 -96 -401 -221 -98 -98 -146 -164 -211
-294 -211 -418 -210 -1070 2 -1469 98 -185 273 -387 413 -477 272 -175 638
-159 937 40 95 63 231 201 298 302 99 150 172 338 198 513 18 127 7 352 -25
470 -91 344 -242 631 -442 840 -142 147 -295 244 -451 284 -88 23 -233 28
-318 12z"/>
<path d="M5470 7814 c-14 -2 -52 -9 -85 -15 -216 -39 -479 -224 -660 -464
-160 -213 -303 -534 -362 -815 -27 -129 -25 -415 4 -530 75 -296 277 -558 507
-659 114 -50 201 -65 371 -66 181 0 273 15 417 69 125 47 237 118 342 217 202
191 321 420 373 719 25 138 25 529 0 660 -87 469 -311 766 -647 859 -71 20
-212 33 -260 25z"/>
<path d="M1000 6226 c-201 -52 -345 -178 -445 -388 -107 -228 -138 -489 -95
-820 63 -492 226 -803 506 -969 316 -187 644 -185 908 5 325 234 465 702 340
1133 -93 323 -358 710 -605 886 -78 55 -202 119 -279 142 -75 23 -259 29 -330
11z"/>
<path d="M7044 5909 c-248 -41 -531 -211 -726 -434 -196 -225 -331 -449 -388
-645 -30 -105 -38 -288 -17 -392 38 -183 131 -366 251 -495 255 -274 649 -364
1022 -232 150 53 256 117 372 225 151 139 251 312 322 559 131 456 86 875
-123 1141 -168 213 -443 318 -713 273z"/>
<path d="M3886 5334 c-125 -23 -277 -78 -451 -163 -575 -284 -1095 -803 -1495
-1492 -205 -354 -321 -657 -375 -979 -23 -135 -31 -412 -16 -540 55 -469 284
-793 654 -925 143 -51 249 -69 412 -68 225 1 385 41 770 195 406 163 368 152
545 152 214 1 323 -27 715 -178 359 -139 626 -159 930 -71 226 66 361 143 510
290 253 251 369 539 368 915 -1 357 -119 725 -373 1169 -170 297 -499 745
-811 1106 -272 314 -626 531 -964 589 -111 20 -312 19 -419 0z"/>
</g>
</svg>
